<?xml version="1.0" encoding="utf-8"?>
<!-- Generator: Adobe Illustrator 19.0.1, SVG Export Plug-In . SVG Version: 6.00 Build 0)  -->
<svg version="1.1" id="Laag_1" xmlns="http://www.w3.org/2000/svg" xmlns:xlink="http://www.w3.org/1999/xlink" x="0px" y="0px"
	 width="1241.4px" height="944.5px" viewBox="219.2 -192.3 1241.4 944.5" style="enable-background:new 219.2 -192.3 1241.4 944.5;"
	 xml:space="preserve">
<path d="M1460.6-3.4c0-18-9-36-18-54l-108-107.9c-18-18-36-27-54-27s-36,9-54,27L696,356.4L462.1,122.5c-18-18-36-27-54-27
	s-36,9-54,18L246.2,230.4c-18,18-27,36-27,54s9,36,18,54l287.9,287.9L633,734.2c18,18,36,18,54,18s36-9,54-18l107.9-107.9
	l584.7-584.7C1460.6,32.6,1460.6,14.6,1460.6-3.4"/>
</svg>
